# xmcd CD database file
#
# Track frame offsets:
#	150
#	38814
#	65383
#	111957
#	131411
#	174838
#	223558
#	254447
#	276557
#
# Disc length: 4311 seconds
#
# Revision: 0
# Processed by: cddbd v1.5.2PL0 Copyright (c) Steve Scherf et al.
# Submitted via: CDex 1.70beta2
#
DISCID=8310d509
DTITLE=Jazz 89 KUVO - Live at the Oasis Vol. 1
DYEAR=1998
DGENRE=Jazz
TTITLE0=Ellyn Rucker - Funk in Deep Freeze
TTITLE1=Mary Ann More - Feeling Groovy
TTITLE2=Lew Tabachin with the Eric Gunnison Trio - Gypsy Without a Song
TTITLE3=James Van Buren - Pieces of Dreams
TTITLE4=Joe Bonner Quartet - Afterlove
TTITLE5=Ron Miles - Born Liar
TTITLE6=Rene Heredia - Rhumbas
TTITLE7=Joni Janek with the Ellyn Rucker Trio - Skylark
TTITLE8=Nick Brignola with the Rich Chiaraluci Quartet - C-Jam Blues
EXTD=YEAR: 1998
EXTT0=
EXTT1=
EXTT2=
EXTT3=
EXTT4=
EXTT5=
EXTT6=
EXTT7=
EXTT8=
PLAYORDER=
